<svg width="8" height="12" viewBox="0 0 8 12" fill="none" xmlns="http://www.w3.org/2000/svg">
<path d="M7.3097 5.53107L2.00826 0.191809C1.88581 0.0689688 1.72001 0 1.54718 0C1.37434 0 1.20855 0.0689688 1.08609 0.191809L0.695482 0.585207C0.573267 0.708404 0.504616 0.875429 0.504616 1.04958C0.504616 1.22373 0.573267 1.39075 0.695482 1.51395L5.14724 5.99746L0.690452 10.4861C0.568482 10.6094 0.5 10.7764 0.5 10.9504C0.5 11.1245 0.568482 11.2915 0.690452 11.4148L1.08106 11.8082C1.20352 11.931 1.3693 12 1.54214 12C1.71497 12 1.88077 11.931 2.00322 11.8082L7.3097 6.46285C7.43161 6.33887 7.5 6.17144 7.5 5.99696C7.5 5.82247 7.43161 5.65504 7.3097 5.53107Z" fill="#001444"/>
</svg>
