<svg width="20" height="20" viewBox="0 0 20 20" fill="none" xmlns="http://www.w3.org/2000/svg">
<path opacity="0.5" d="M15.3121 12.9687C15.3121 12.3463 15.498 11.7381 15.8459 11.222C16.1938 10.7059 16.6879 10.3055 17.2648 10.072C16.7905 9.88015 16.2763 9.80769 15.7674 9.86101C15.2585 9.91432 14.7705 10.0918 14.3462 10.3778C13.922 10.6639 13.5744 11.0497 13.3342 11.5015C13.0939 11.9532 12.9683 12.4571 12.9683 12.9687C12.9683 13.4804 13.0939 13.9842 13.3342 14.436C13.5744 14.8878 13.922 15.2736 14.3462 15.5596C14.7705 15.8457 15.2585 16.0231 15.7674 16.0765C16.2763 16.1298 16.7905 16.0573 17.2648 15.8654C16.6879 15.632 16.1938 15.2315 15.8459 14.7155C15.498 14.1994 15.3121 13.5911 15.3121 12.9687Z" fill="#8C97AB"/>
<path d="M5.46884 10.6247C6.91902 10.6229 8.30924 10.0459 9.33436 9.02013C10.3595 7.9944 10.9357 6.60382 10.9366 5.15365V2.34467C10.936 1.72335 10.689 1.12762 10.2498 0.688169C9.81052 0.248721 9.21491 0.00143952 8.59358 0.000568769C8.48853 -0.00336742 8.38377 0.0139242 8.28556 0.0514094C8.18735 0.0888945 8.0977 0.145803 8.02199 0.218731C7.94628 0.291659 7.88605 0.379109 7.84492 0.475848C7.80378 0.572588 7.78258 0.676631 7.78258 0.781754C7.78258 0.886877 7.80378 0.990919 7.84492 1.08766C7.88605 1.1844 7.94628 1.27185 8.02199 1.34478C8.0977 1.4177 8.18735 1.47461 8.28556 1.5121C8.38377 1.54958 8.48853 1.56688 8.59358 1.56294C8.80091 1.56294 8.99975 1.6453 9.14635 1.7919C9.29296 1.93851 9.37532 2.13734 9.37532 2.34467V5.15365C9.35815 6.17823 8.93909 7.15505 8.20845 7.87354C7.47782 8.59204 6.49412 8.99468 5.46939 8.99468C4.44467 8.99468 3.46097 8.59204 2.73033 7.87354C1.9997 7.15505 1.58063 6.17823 1.56347 5.15365V2.34467C1.56347 2.13734 1.64583 1.93851 1.79243 1.7919C1.93903 1.6453 2.13787 1.56294 2.3452 1.56294C2.45025 1.5668 2.555 1.54944 2.65319 1.51188C2.75137 1.47433 2.84098 1.41735 2.91664 1.34437C2.9923 1.27139 3.05246 1.1839 3.09353 1.08713C3.1346 0.990364 3.15572 0.886307 3.15565 0.781185C3.15558 0.676062 3.1343 0.572035 3.0931 0.475324C3.05189 0.378614 2.99161 0.291207 2.91585 0.218332C2.84008 0.145457 2.7504 0.0886113 2.65216 0.0511948C2.55392 0.0137782 2.44915 -0.00344043 2.3441 0.000568769C1.72259 0.00114935 1.12669 0.248303 0.687213 0.687782C0.247734 1.12726 0.000580586 1.72316 0 2.34467L0 5.15365C0.000870711 6.60401 0.577261 7.99475 1.60262 9.02052C2.62797 10.0463 4.01848 10.6232 5.46884 10.6247Z" fill="#8C97AB"/>
<path d="M16.0899 9.06226C15.1898 9.06347 14.3177 9.37491 13.6205 9.9441C12.9233 10.5133 12.4436 11.3054 12.2623 12.187H11.7141C11.0926 12.1876 10.4967 12.4347 10.0572 12.8742C9.61776 13.3137 9.37061 13.9096 9.37003 14.5311V16.8752C9.37003 17.2896 9.20543 17.687 8.91243 17.98C8.61942 18.273 8.22203 18.4376 7.80766 18.4376C7.39329 18.4376 6.9959 18.273 6.70289 17.98C6.40989 17.687 6.24529 17.2896 6.24529 16.8752V12.9687C6.24922 12.8637 6.23193 12.7589 6.19444 12.6607C6.15696 12.5625 6.10006 12.4729 6.02713 12.3971C5.9542 12.3214 5.86675 12.2612 5.77001 12.2201C5.67327 12.1789 5.56923 12.1577 5.46411 12.1577C5.35899 12.1577 5.25494 12.1789 5.1582 12.2201C5.06146 12.2612 4.97401 12.3214 4.90109 12.3971C4.82816 12.4729 4.77125 12.5625 4.73376 12.6607C4.69628 12.7589 4.67899 12.8637 4.68292 12.9687V16.8752C4.68292 17.7039 5.01213 18.4987 5.59813 19.0847C6.18413 19.6707 6.97893 19.9999 7.80766 19.9999C8.63639 19.9999 9.43118 19.6707 10.0172 19.0847C10.6032 18.4987 10.9324 17.7039 10.9324 16.8752V14.5311C10.9324 14.3238 11.0148 14.1249 11.1614 13.9783C11.308 13.8317 11.5068 13.7494 11.7141 13.7494H12.2623C12.41 14.4736 12.7602 15.1412 13.2722 15.6744C13.7842 16.2076 14.4369 16.5846 15.1546 16.7616C15.8723 16.9386 16.6255 16.9083 17.3267 16.6743C18.0278 16.4403 18.6482 16.0121 19.1158 15.4396C19.5833 14.867 19.8788 14.1736 19.968 13.4398C20.0571 12.706 19.9362 11.962 19.6193 11.2941C19.3025 10.6263 18.8026 10.0621 18.1779 9.667C17.5531 9.27193 16.8291 9.06223 16.0899 9.06226ZM16.0899 15.3117C15.6262 15.3117 15.173 15.1743 14.7875 14.9167C14.4021 14.6591 14.1016 14.293 13.9242 13.8647C13.7468 13.4363 13.7004 12.965 13.7908 12.5103C13.8813 12.0556 14.1045 11.6379 14.4323 11.3101C14.7602 10.9823 15.1778 10.759 15.6326 10.6686C16.0873 10.5781 16.5586 10.6245 16.9869 10.802C17.4152 10.9794 17.7814 11.2798 18.0389 11.6653C18.2965 12.0508 18.434 12.504 18.434 12.9676C18.4334 13.5891 18.1862 14.185 17.7468 14.6245C17.3073 15.064 16.7114 15.3112 16.0899 15.3117Z" fill="#8C97AB"/>
<path d="M17.2102 12.4272C17.8157 12.4272 18.3066 12.1818 18.3066 11.879C18.3066 11.5762 17.8157 11.3308 17.2102 11.3308C16.6046 11.3308 16.1138 11.5762 16.1138 11.879C16.1138 12.1818 16.6046 12.4272 17.2102 12.4272Z" fill="#8C97AB"/>
</svg>
