<svg width="42" height="42" viewBox="0 0 42 42" fill="none" xmlns="http://www.w3.org/2000/svg">
<path d="M33.0805 8.81283C33.467 7.62425 33.5142 6.35251 33.2167 5.13891C32.9193 3.92531 32.289 2.81737 31.3958 1.93818C30.1411 0.696918 28.4424 0 26.6716 0C24.9008 0 23.2021 0.696918 21.9474 1.93818C21.8235 2.06886 21.6734 2.17237 21.5069 2.24204C21.3403 2.31171 21.1609 2.34601 20.9802 2.34274C20.6286 2.33292 20.2946 2.18787 20.0486 1.93818C18.7939 0.696918 17.0952 0 15.3244 0C13.5536 0 11.8549 0.696918 10.6002 1.93818C9.707 2.81737 9.07667 3.92531 8.77926 5.13891C8.48185 6.35251 8.529 7.62425 8.91547 8.81283C10.4823 14.6205 17.6484 20.4625 20.783 21.2973C20.9232 21.3347 21.0709 21.3347 21.2111 21.2973C24.3457 20.4625 31.5127 14.6155 33.0786 8.81283H33.0805ZM26.6092 15.7111C25.012 17.3703 23.107 18.7073 20.999 19.6485C18.8911 18.7072 16.9861 17.3702 15.3888 15.7111C13.1579 13.7259 11.4788 11.2038 10.513 8.3876C10.2028 7.4772 10.1563 6.4986 10.3786 5.56321C10.601 4.62782 11.0833 3.77323 11.7706 3.09675C12.7154 2.16337 13.9938 1.63942 15.3264 1.63942C16.659 1.63942 17.9374 2.16337 18.8822 3.09675C19.4287 3.64657 20.1688 3.96418 20.9465 3.98266C21.3501 3.98968 21.7508 3.91472 22.1242 3.76238C22.4976 3.61003 22.8357 3.38353 23.1178 3.09675C24.0626 2.16337 25.341 1.63942 26.6736 1.63942C28.0062 1.63942 29.2846 2.16337 30.2294 3.09675C30.9165 3.77333 31.3987 4.62797 31.6208 5.56336C31.843 6.49874 31.7963 7.47729 31.486 8.3876C30.5199 11.2039 28.8405 13.726 26.6092 15.7111Z" fill="#0062FF"/>
<path d="M25.7936 5.4878C25.2725 5.49248 24.7745 5.70246 24.4092 6.07161C24.0439 6.44076 23.841 6.93887 23.8452 7.45649V9.1909C23.8543 9.72249 23.6507 10.2359 23.2791 10.6186C22.9076 11.0013 22.3984 11.2221 21.8632 11.2324H21.8235V7.12772H22.0386C22.2577 7.12772 22.4678 7.04128 22.6227 6.88741C22.7776 6.73355 22.8646 6.52486 22.8646 6.30726C22.8646 6.08967 22.7776 5.88098 22.6227 5.72712C22.4678 5.57326 22.2577 5.48682 22.0386 5.48682H19.9575C19.7384 5.48682 19.5283 5.57326 19.3734 5.72712C19.2185 5.88098 19.1314 6.08967 19.1314 6.30726C19.1314 6.52486 19.2185 6.73355 19.3734 6.88741C19.5283 7.04128 19.7384 7.12772 19.9575 7.12772H20.1725V11.2285H20.1329C19.5977 11.2181 19.0885 10.9974 18.717 10.6147C18.3454 10.232 18.1418 9.71855 18.1508 9.18696V7.45649C18.1531 7.20015 18.1044 6.94589 18.0077 6.70822C17.911 6.47055 17.7681 6.25413 17.5872 6.07132C17.4062 5.88851 17.1908 5.74289 16.9533 5.64277C16.7157 5.54265 16.4606 5.48999 16.2025 5.4878C15.9834 5.4878 15.7733 5.57424 15.6184 5.7281C15.4635 5.88197 15.3765 6.09065 15.3765 6.30825C15.3765 6.52584 15.4635 6.73453 15.6184 6.8884C15.7733 7.04226 15.9834 7.1287 16.2025 7.1287C16.2848 7.13378 16.362 7.17054 16.4175 7.2312C16.473 7.29185 16.5025 7.37161 16.4998 7.45354V9.18794C16.4911 10.1543 16.8685 11.0846 17.5494 11.775C18.2303 12.4653 19.159 12.8592 20.1319 12.8704H20.1715V15.3312H19.9565C19.7374 15.3312 19.5273 15.4177 19.3724 15.5715C19.2175 15.7254 19.1304 15.9341 19.1304 16.1517C19.1304 16.3693 19.2175 16.578 19.3724 16.7318C19.5273 16.8857 19.7374 16.9721 19.9565 16.9721H22.0376C22.2567 16.9721 22.4668 16.8857 22.6217 16.7318C22.7766 16.578 22.8636 16.3693 22.8636 16.1517C22.8636 15.9341 22.7766 15.7254 22.6217 15.5715C22.4668 15.4177 22.2567 15.3312 22.0376 15.3312H21.8226V12.8704H21.8622C22.8351 12.8592 23.7638 12.4653 24.4447 11.775C25.1255 11.0846 25.503 10.1543 25.4943 9.18794V7.45649C25.4916 7.37456 25.5211 7.29481 25.5766 7.23416C25.6321 7.1735 25.7092 7.13673 25.7916 7.13165C26.0107 7.13165 26.2208 7.04521 26.3757 6.89135C26.5306 6.73748 26.6176 6.5288 26.6176 6.31121C26.6176 6.09361 26.5306 5.88492 26.3757 5.73105C26.2208 5.57719 26.0107 5.49075 25.7916 5.49075L25.7936 5.4878Z" fill="#0062FF"/>
<path d="M38.4544 8.30301H38.2829C37.3856 8.28743 36.5187 8.62556 35.8718 9.24338C35.2249 9.8612 34.8507 10.7084 34.8312 11.5996L34.6736 19.6052C34.1519 19.6397 33.6499 19.8165 33.2228 20.1161C32.2395 20.8463 31.3265 21.6655 30.4955 22.5632C29.9653 23.0888 29.3647 23.6853 28.677 24.3419C24.8585 27.984 24.5236 30.7903 24.4473 34.648C24.4473 34.6529 24.4473 34.6588 24.4473 34.6637V41.1801C24.4473 41.3975 24.5342 41.6061 24.6891 41.7599C24.8439 41.9136 25.0539 42 25.2728 42H32.9919C33.2108 42 33.4208 41.9136 33.5756 41.7599C33.7304 41.6061 33.8174 41.3975 33.8174 41.1801V34.7553L38.3136 29.6918C39.4712 28.3838 40.0733 26.6811 39.9934 24.9414V9.88091C39.9936 9.47127 39.8331 9.07767 39.5459 8.78363C39.2588 8.48959 38.8676 8.31825 38.4554 8.30596L38.4544 8.30301ZM38.3404 24.9384C38.4178 26.2764 37.9637 27.5911 37.0759 28.6002L32.3705 33.8989C32.2376 34.0488 32.1644 34.2416 32.1644 34.4413V40.3562H26.0973V34.6686C26.1677 31.1349 26.3867 28.8 29.8206 25.5211C30.5143 24.8538 31.1258 24.2523 31.6609 23.7208C32.415 22.9077 33.2383 22.1608 34.1216 21.4883C34.6696 21.1339 34.8609 21.2343 35.0393 21.3406L35.0601 21.3534C35.1037 21.381 35.1949 21.4519 35.2246 21.7098C35.3445 22.7788 34.2247 25.0742 32.1406 27.0636C31.9888 27.2157 31.903 27.4207 31.9014 27.6348C31.8998 27.849 31.9826 28.0552 32.1321 28.2095C32.2816 28.3638 32.4859 28.4538 32.7014 28.4604C32.9169 28.467 33.1264 28.3897 33.2852 28.2448C35.5903 26.0428 37.063 23.2798 36.8658 21.5257C36.8275 21.0561 36.6325 20.6127 36.3118 20.2657L36.4822 11.6271C36.4934 11.1711 36.6854 10.7379 37.0165 10.4217C37.3476 10.1056 37.791 9.9321 38.2502 9.93899H38.3414V24.9355L38.3404 24.9384Z" fill="#0062FF"/>
<path d="M15.8358 27.3255C15.72 27.1408 15.5351 27.0093 15.3218 26.96C15.1084 26.9107 14.8841 26.9477 14.6981 27.0627C14.5122 27.1776 14.3798 27.3613 14.3302 27.5732C14.2806 27.7852 14.3177 28.008 14.4335 28.1927C15.7149 30.2381 15.8507 32.1675 15.9002 34.6677V40.3552H9.83319V34.4403C9.83327 34.2406 9.75997 34.0478 9.62706 33.8979L4.91971 28.5972C4.03364 27.5884 3.58076 26.275 3.65814 24.9384V9.94197H3.74832C4.20754 9.93509 4.65091 10.1086 4.98201 10.4247C5.3131 10.7409 5.50512 11.1741 5.5163 11.6301L5.68676 20.2687C5.366 20.6157 5.17104 21.0591 5.13278 21.5287C4.93457 23.2828 6.40723 26.0458 8.71334 28.2478C8.87213 28.3926 9.08167 28.47 9.29715 28.4634C9.51263 28.4568 9.71696 28.3667 9.86646 28.2125C10.016 28.0582 10.0988 27.8519 10.0972 27.6378C10.0956 27.4237 10.0097 27.2187 9.85797 27.0666C7.77682 25.0763 6.65399 22.7817 6.77391 21.7127C6.80265 21.4558 6.89382 21.384 6.93842 21.3564L6.95625 21.3456C7.37546 21.1005 7.83331 21.2727 9.52796 22.9205C9.60533 22.996 9.69691 23.0556 9.79747 23.096C9.89804 23.1363 10.0056 23.1566 10.1141 23.1556C10.2225 23.1547 10.3297 23.1325 10.4295 23.0904C10.5294 23.0483 10.6199 22.987 10.6959 22.9102C10.7719 22.8334 10.8319 22.7424 10.8725 22.6425C10.9131 22.5426 10.9335 22.4358 10.9326 22.328C10.9316 22.2203 10.9093 22.1138 10.8669 22.0147C10.8245 21.9155 10.7628 21.8256 10.6855 21.7502C9.61814 20.7087 8.52306 19.6397 7.32591 19.6003L7.16833 11.5957C7.14881 10.7045 6.77466 9.85729 6.12776 9.23947C5.48086 8.62165 4.6139 8.28353 3.71661 8.2991H3.54516C3.13292 8.31139 2.74172 8.48273 2.45457 8.77677C2.16742 9.07081 2.00691 9.4644 2.00709 9.87405V24.9345C1.92698 26.6728 2.52797 28.3744 3.6839 29.682L8.18215 34.7474V41.1722C8.18215 41.3897 8.26912 41.5983 8.42394 41.752C8.57876 41.9058 8.78873 41.9922 9.00767 41.9922H16.7267C16.9457 41.9922 17.1557 41.9058 17.3105 41.752C17.4653 41.5983 17.5523 41.3897 17.5523 41.1722V34.6559C17.5523 34.651 17.5523 34.6451 17.5523 34.6401C17.4987 31.9647 17.3392 29.7243 15.8358 27.3255Z" fill="#0062FF"/>
<path d="M13.5763 24.9286C13.5763 24.7111 13.4893 24.5026 13.3345 24.3488C13.1797 24.195 12.9697 24.1086 12.7508 24.1086C12.5876 24.1088 12.4281 24.1571 12.2924 24.2473C12.1568 24.3375 12.0512 24.4656 11.9888 24.6155C11.9265 24.7653 11.9103 24.9302 11.9423 25.0892C11.9742 25.2482 12.0529 25.3942 12.1684 25.5087C12.2839 25.6233 12.431 25.7013 12.5911 25.7329C12.7512 25.7644 12.9171 25.7481 13.0679 25.686C13.2187 25.6239 13.3476 25.5189 13.4383 25.384C13.5289 25.2492 13.5773 25.0907 13.5773 24.9286H13.5763Z" fill="#0062FF"/>
</svg>
