<svg width="24" height="24" viewBox="0 0 24 24" fill="none" xmlns="http://www.w3.org/2000/svg">
<path d="M4.71077 7.30342L2.92755 5.5202C2.56839 5.16104 2.56493 4.58218 2.92541 4.2217C3.28339 3.86372 3.8661 3.86603 4.22391 4.22384L19.776 19.7759C20.1351 20.1351 20.1386 20.7139 19.7781 21.0744C19.4201 21.4324 18.8374 21.4301 18.4796 21.0723L16.0175 18.6102C14.7826 19.0793 13.4435 19.3332 11.9999 19.3332C8.72512 19.3332 5.9878 18.0262 3.78522 15.8656C3.02098 15.1159 2.37618 14.3143 1.84534 13.5113C1.52297 13.0236 1.30693 12.6369 1.19316 12.4008C1.13995 12.2904 1 12.0002 1 12.0002C1 12.0002 1.14019 11.7088 1.19316 11.5989C1.30693 11.3628 1.52297 10.9761 1.84534 10.4885C2.37618 9.68549 3.02098 8.88389 3.78522 8.13419C4.0839 7.84119 4.39241 7.56389 4.71077 7.30342ZM14.3712 16.9639L12.9497 15.5423C12.6468 15.6234 12.3284 15.6665 11.9999 15.6665C9.9749 15.6665 8.33328 14.0249 8.33328 11.9999C8.33328 11.6714 8.37647 11.353 8.45748 11.0501L7.03596 9.62861C6.69236 10.3466 6.49995 11.1508 6.49995 11.9999C6.49995 15.0374 8.96238 17.4999 11.9999 17.4999C12.849 17.4999 13.6532 17.3075 14.3712 16.9639ZM7.98238 5.38958C9.21729 4.9205 10.5564 4.66654 11.9999 4.66654C15.2748 4.66654 18.0121 5.97352 20.2147 8.13419C20.9789 8.88389 21.6237 9.68549 22.1546 10.4885C22.4769 10.9761 22.693 11.3628 22.8067 11.5989C22.86 11.7095 23 12.0002 23 12.0002C23 12.0002 22.8596 12.2911 22.8067 12.4008C22.693 12.6369 22.4769 13.0236 22.1546 13.5113C21.6237 14.3143 20.9789 15.1159 20.2147 15.8656C19.916 16.1586 19.6075 16.4359 19.2891 16.6963L16.9639 14.3711C17.3075 13.6531 17.4999 12.849 17.4999 11.9999C17.4999 8.96231 15.0375 6.49987 11.9999 6.49987C11.1508 6.49987 10.3467 6.69229 9.62868 7.03589L7.98238 5.38958Z" fill="#8C97AB"/>
<path d="M11.8229 9C11.5383 9 11.2625 9.03742 11 9.10761L14.8924 13C14.9626 12.7375 15 12.4617 15 12.1771C15 10.4224 13.5776 9 11.8229 9Z" fill="#8C97AB"/>
</svg>
