<svg width="31" height="42" viewBox="0 0 31 42" fill="none" xmlns="http://www.w3.org/2000/svg">
<path d="M10.375 0.000904239C11.049 0.107387 11.7284 0.186144 12.3942 0.331517C12.7444 0.420419 13.0813 0.556513 13.3961 0.736164C13.722 0.885582 13.9951 1.13279 14.1788 1.44464C14.3624 1.75648 14.4478 2.11793 14.4235 2.48055C14.474 4.71975 14.3867 6.95998 14.1621 9.18809C14.1366 9.37328 14.1165 9.564 14.0865 9.82049C14.4062 9.54271 14.6748 9.3039 14.9517 9.07427C17.3864 6.93006 20.5419 5.82498 23.759 5.98991C25.8977 6.12018 27.9806 6.73561 29.8549 7.79093C30.1195 7.94575 30.3415 8.16559 30.5006 8.43045C30.6598 8.69531 30.751 8.99665 30.7657 9.30666C30.8469 9.95947 30.7836 10.6225 30.5804 11.2473C30.3773 11.872 30.0395 12.4428 29.5916 12.9178C29.324 13.2562 28.9595 13.5015 28.5486 13.62C28.1377 13.7384 27.7008 13.7241 27.2983 13.579C26.0781 13.1482 24.7938 12.9355 23.5022 12.9502C23.3747 12.9557 23.2471 12.9669 23.1196 12.9753L23.0458 13.0854C23.1003 13.0921 23.1535 13.1075 23.2034 13.1308C24.7123 14.2195 25.8874 15.7198 26.5933 17.4586C27.8547 20.3391 28.4223 23.4838 28.2491 26.6319C28.1384 30.0642 27.4074 33.4465 26.0924 36.6098C25.7206 37.5156 25.2436 38.373 24.6716 39.1636C23.9273 40.1866 22.9227 40.9838 21.766 41.4697C20.6093 41.9555 19.3441 42.1116 18.1066 41.9211C15.3457 41.5559 12.6784 40.6593 10.2475 39.2794C6.92124 37.5912 4.17173 34.9243 2.35679 31.6258C0.541843 28.3272 -0.254542 24.5496 0.0712634 20.7846C0.214887 19.2316 0.640117 17.7191 1.32543 16.3234C1.43716 16.0803 1.49409 15.8149 1.49209 15.5466C1.43878 14.298 1.69571 13.0558 2.23916 11.9348C2.7826 10.8138 3.59504 9.85016 4.60151 9.13259C5.0029 8.83158 5.33583 8.44619 5.57755 8.00263C5.81928 7.55907 5.96414 7.06777 6.00232 6.56218C6.13507 5.31574 6.18767 4.06175 6.15986 2.80834C6.13709 1.60462 6.33568 1.02507 7.77563 0.47043C8.35107 0.290574 8.94023 0.159874 9.53706 0.0796861C9.75929 0.0352409 9.9879 0.0250004 10.2129 0L10.375 0.000904239ZM13.7522 12.3003C15.3005 13.3679 16.5659 14.8074 17.4363 16.4911C17.8895 17.3876 18.2889 18.3112 18.6322 19.2568C18.8653 19.8651 18.3999 20.4282 17.8507 20.2244C17.6061 20.1019 17.418 19.8874 17.3261 19.6263C16.8231 18.1392 16.0847 16.7456 15.1402 15.5002C14.3433 14.3345 13.2158 13.4433 11.908 12.9454C10.6003 12.4475 9.17437 12.3665 7.82022 12.7132C6.50299 12.9906 5.28247 13.6203 4.28453 14.5373C3.2866 15.4544 2.54744 16.6255 2.14332 17.9299C1.13976 20.8524 1.07248 24.0229 1.95115 26.9866C2.12146 27.6505 2.3683 28.294 2.60055 29.0107C2.90657 28.4764 3.13606 28.0162 3.42022 27.5903C4.19544 26.2662 5.41363 25.2703 6.85195 24.7845C8.29027 24.2987 9.85259 24.3557 11.253 24.9449C13.448 25.7926 15.708 26.4547 18.0101 26.9245C19.4132 27.2489 20.8752 27.1963 22.2523 26.7719C23.6294 26.3475 24.874 25.5659 25.8638 24.5041C26.7928 23.5244 26.8037 23.5356 26.5924 22.1892C26.586 22.1485 26.5851 22.1078 26.5779 22.0671C26.2095 19.726 25.2819 17.5125 23.8764 15.6206C23.3452 14.8911 22.6348 14.3165 21.8163 13.954C21.5199 13.7599 21.1637 13.6833 20.8154 13.7388C20.4671 13.7943 20.1511 13.9779 19.9273 14.2549C19.8696 14.3228 19.7986 14.3778 19.7188 14.4164C19.6391 14.455 19.5523 14.4763 19.464 14.479C19.3757 14.4817 19.2879 14.4658 19.206 14.4321C19.1241 14.3985 19.0499 14.3479 18.9883 14.2836C18.9182 14.2235 18.8614 14.1489 18.8218 14.0648C18.7823 13.9807 18.7608 13.889 18.7588 13.7958C18.7568 13.7025 18.7744 13.61 18.8104 13.5243C18.8463 13.4385 18.8999 13.3615 18.9674 13.2984C19.2638 12.9838 19.5975 12.7078 19.961 12.477C21.4104 11.6716 23.078 11.3668 24.7126 11.6085C25.2254 11.6585 25.7353 11.7456 26.2763 11.8197C26.238 11.1779 26.33 10.535 26.5465 9.93092C26.7631 9.32687 27.0996 8.77463 27.5351 8.30849C23.1743 6.36864 17.6531 7.3474 13.7522 12.3003ZM26.9285 25.5708C26.0514 26.206 25.2891 26.8597 24.433 27.3579C22.2941 28.498 19.8206 28.8093 17.4728 28.2339C15.1353 27.7412 12.8401 27.06 10.6091 26.1967C9.62754 25.7987 8.54403 25.7424 7.5277 26.0366C6.51138 26.3307 5.61949 26.9588 4.99136 27.8227C4.55246 28.4893 4.14811 29.1789 3.78 29.8885C3.62407 30.1367 3.55031 30.429 3.56948 30.7229C3.58865 31.0168 3.69976 31.2967 3.88656 31.5218C5.83426 34.6444 8.65232 37.1068 11.9816 38.5951C13.9376 39.5971 16.0475 40.2518 18.2205 40.5312C19.3517 40.7087 20.5094 40.5347 21.5417 40.0319C22.5741 39.5291 23.4329 38.721 24.0058 37.7136C24.275 37.2736 24.513 36.8148 24.718 36.3405C25.7628 33.8688 26.4382 31.2521 26.7217 28.5774C26.8356 27.5792 26.8629 26.5745 26.9285 25.5708ZM7.5998 3.85929C7.55517 4.67968 7.56068 5.47415 7.46049 6.25564C7.41254 7.08224 7.18314 7.8875 6.78914 8.6122C6.39513 9.3369 5.8465 9.96273 5.18353 10.4437C4.1086 11.2302 3.36455 12.3996 3.09963 13.7188C4.30162 12.5573 5.7875 11.7441 7.40302 11.3636C9.01853 10.9831 10.7048 11.0491 12.2867 11.5548C12.9207 9.03951 13.1666 6.43935 13.0154 3.84731C11.2691 4.50646 9.34886 4.51067 7.5998 3.85929ZM7.557 2.19267C8.64994 3.27324 12.4689 3.08706 12.9917 2.15186C11.8641 1.19074 8.63719 1.20374 7.557 2.19357V2.19267ZM29.4268 9.91871C29.4341 9.81903 29.4286 9.71878 29.4104 9.62054C29.3293 9.40202 29.2282 9.19002 29.1371 8.97243C28.9169 9.0415 28.7095 9.14716 28.5233 9.28529C28.196 9.60974 27.9496 10.009 27.8048 10.4498C27.66 10.8907 27.621 11.3604 27.6909 11.8197C27.7665 12.3493 28.026 12.4484 28.4194 12.0975C28.7241 11.8231 28.9707 11.4884 29.144 11.114C29.3173 10.7396 29.4139 10.3332 29.4277 9.91962L29.4268 9.91871Z" fill="#0062FF"/>
<path d="M2.7817 21.3755C2.8831 19.3033 3.67664 17.328 5.03132 15.7762C5.6405 15.1179 6.40051 14.6233 7.24357 14.3365C7.32717 14.3011 7.41697 14.2835 7.50751 14.2845C7.59806 14.2855 7.68753 14.3051 7.77034 14.3423C7.85315 14.3796 7.92761 14.4336 7.98926 14.501C8.0509 14.5685 8.09842 14.6479 8.1289 14.7346C8.16518 14.8164 8.18432 14.9052 8.18515 14.995C8.18598 15.0847 8.16844 15.1735 8.13368 15.2561C8.09891 15.3386 8.04774 15.4129 7.98325 15.4742C7.91877 15.5356 7.84242 15.5826 7.75911 15.6123C5.62332 16.4522 4.76268 18.242 4.32277 20.3467C4.24862 20.7202 4.19536 21.0978 4.16334 21.4775C4.10505 22.0877 3.8445 22.4033 3.39731 22.3774C2.95011 22.3515 2.74345 22.0144 2.7817 21.3755Z" fill="#0062FF"/>
<path d="M10.9789 30.045C10.9864 30.601 10.7763 31.1371 10.3949 31.5357C10.206 31.733 9.98079 31.8905 9.73203 31.9993C9.48327 32.1081 9.21589 32.1662 8.9451 32.17C8.39822 32.1776 7.87075 31.9641 7.47875 31.5763C7.08675 31.1886 6.8623 30.6584 6.85481 30.1024C6.84732 29.5465 7.05743 29.0101 7.43884 28.6116C7.82024 28.213 8.34174 27.9849 8.88862 27.9772C9.4355 27.9696 9.96297 28.1834 10.355 28.5711C10.747 28.9589 10.9714 29.489 10.9789 30.045ZM8.92876 30.7625C9.01904 30.7632 9.10843 30.745 9.19158 30.7092C9.27474 30.6734 9.34985 30.6209 9.41228 30.5546C9.4747 30.4882 9.5231 30.4096 9.55459 30.3235C9.58608 30.2375 9.59998 30.146 9.59539 30.0543C9.59187 29.876 9.52042 29.706 9.39604 29.5802C9.27167 29.4545 9.10415 29.3828 8.92876 29.3802C8.83839 29.3793 8.74869 29.3966 8.66493 29.431C8.58116 29.4655 8.50489 29.5164 8.44057 29.5809C8.37624 29.6455 8.32516 29.7223 8.29014 29.807C8.25511 29.8917 8.23691 29.9828 8.23655 30.0746C8.23665 30.1662 8.25474 30.2568 8.28969 30.3412C8.32465 30.4255 8.37576 30.502 8.44012 30.5661C8.50449 30.6301 8.58074 30.6804 8.66448 30.7142C8.74822 30.7479 8.8377 30.7644 8.92776 30.7625H8.92876Z" fill="#0062FF"/>
<path d="M23.3586 34.2783C23.3578 34.6932 23.2357 35.0985 23.0079 35.4427C22.7801 35.7869 22.4569 36.0544 22.0791 36.2113C21.7014 36.3683 21.2864 36.4077 20.8866 36.3244C20.4869 36.241 20.1205 36.0387 19.8341 35.7432C19.5477 35.4477 19.3541 35.0725 19.278 34.6649C19.2018 34.2573 19.2465 33.8358 19.4065 33.4541C19.5664 33.0724 19.8344 32.7479 20.1763 32.5214C20.5182 32.2949 20.9185 32.1767 21.3266 32.1821C21.5955 32.1838 21.8614 32.2394 22.1092 32.3457C22.3569 32.4521 22.5816 32.607 22.7703 32.8017C22.9591 32.9964 23.1081 33.2269 23.2091 33.4803C23.31 33.7337 23.3609 34.0049 23.3586 34.2783ZM21.9833 34.2885C21.9834 34.1084 21.9146 33.9355 21.7917 33.8058C21.6688 33.6762 21.5013 33.5999 21.3243 33.5933C21.1474 33.5868 20.9747 33.6502 20.8428 33.7704C20.7109 33.8905 20.63 34.058 20.6171 34.2376C20.6104 34.3308 20.6222 34.4243 20.6519 34.5127C20.6816 34.6012 20.7285 34.6828 20.7898 34.7524C20.8511 34.822 20.9257 34.8782 21.0089 34.9178C21.0921 34.9575 21.1823 34.9797 21.2742 34.9832C21.3661 34.9866 21.4576 34.9713 21.5435 34.938C21.6293 34.9046 21.7078 34.8538 21.774 34.789C21.8401 34.7241 21.8927 34.6464 21.9287 34.5604C21.9647 34.4744 21.9833 34.3819 21.9833 34.2885Z" fill="#0062FF"/>
<path d="M14.4115 34.985C14.4115 35.077 14.3931 35.1681 14.3573 35.2526C14.3216 35.3372 14.2692 35.4133 14.2034 35.4766C14.1377 35.54 14.0601 35.5891 13.9751 35.6209C13.8901 35.6527 13.7997 35.6667 13.7093 35.6618C13.5336 35.6554 13.367 35.581 13.2435 35.4538C13.1201 35.3266 13.0491 35.1562 13.0453 34.9775C13.0483 34.7918 13.1221 34.6145 13.251 34.4829C13.3799 34.3513 13.554 34.2758 13.7366 34.272C13.827 34.2735 13.9162 34.2931 13.9991 34.3298C14.082 34.3666 14.157 34.4196 14.2197 34.4858C14.2824 34.5521 14.3316 34.6303 14.3645 34.716C14.3975 34.8016 14.4134 34.893 14.4115 34.985Z" fill="#0062FF"/>
<path d="M16.4688 31.4718C16.3769 31.4715 16.2862 31.4523 16.2017 31.4155C16.1173 31.3788 16.041 31.3253 15.9774 31.258C15.9138 31.1906 15.8641 31.1108 15.8315 31.0235C15.7988 30.9363 15.7839 30.8433 15.7874 30.75C15.7908 30.6567 15.8128 30.565 15.8518 30.4805C15.8909 30.3961 15.9463 30.3204 16.0147 30.2581C16.0832 30.1958 16.1633 30.1483 16.2502 30.1182C16.3371 30.0881 16.4291 30.0761 16.5207 30.0829C16.6958 30.0916 16.8606 30.1695 16.9798 30.3002C17.0989 30.4308 17.1629 30.6038 17.1582 30.7819C17.1585 30.8735 17.1408 30.9643 17.1061 31.0489C17.0714 31.1334 17.0204 31.21 16.9562 31.2742C16.892 31.3385 16.8158 31.3891 16.7321 31.423C16.6484 31.4569 16.5589 31.4735 16.4688 31.4718Z" fill="#0062FF"/>
<path d="M24.0554 30.0811C24.2307 30.0879 24.3968 30.1631 24.5192 30.2909C24.6416 30.4186 24.7111 30.5892 24.7132 30.7676C24.7153 30.946 24.6499 31.1184 24.5306 31.2491C24.4112 31.3799 24.2468 31.4589 24.0717 31.47C23.9792 31.4758 23.8865 31.4626 23.7992 31.4309C23.7119 31.3992 23.6318 31.3499 23.5638 31.2857C23.4959 31.2216 23.4415 31.144 23.404 31.0579C23.3664 30.9717 23.3464 30.8786 23.3453 30.7843C23.3442 30.6901 23.3619 30.5967 23.3974 30.5097C23.4329 30.4226 23.4855 30.3437 23.5519 30.278C23.6184 30.2122 23.6972 30.1608 23.7838 30.127C23.8703 30.0931 23.9627 30.0775 24.0554 30.0811Z" fill="#0062FF"/>
<path d="M13.0429 31.4774C13.1355 31.4735 13.228 31.4888 13.3147 31.5224C13.4014 31.556 13.4804 31.6071 13.5471 31.6727C13.6137 31.7383 13.6665 31.817 13.7023 31.904C13.7381 31.991 13.7561 32.0844 13.7552 32.1786C13.7543 32.2729 13.7346 32.3661 13.6973 32.4524C13.6599 32.5387 13.6057 32.6164 13.5378 32.6807C13.47 32.745 13.39 32.7946 13.3027 32.8265C13.2154 32.8584 13.1228 32.872 13.0302 32.8663C12.8551 32.8556 12.6907 32.777 12.571 32.6466C12.4514 32.5162 12.3856 32.3441 12.3872 32.1658C12.3889 31.9874 12.4579 31.8166 12.5799 31.6885C12.7019 31.5604 12.8676 31.4848 13.0429 31.4774Z" fill="#0062FF"/>
<path d="M19.9073 38.4562C19.8167 38.4557 19.7272 38.4367 19.6441 38.3999C19.5611 38.3632 19.4863 38.3096 19.4242 38.2426C19.3621 38.1756 19.314 38.0964 19.2829 38.01C19.2518 37.9235 19.2384 37.8315 19.2433 37.7396C19.2558 37.5609 19.3356 37.394 19.4661 37.2737C19.5966 37.1534 19.7677 37.089 19.9439 37.0938C20.12 37.0985 20.2875 37.1722 20.4115 37.2995C20.5355 37.4267 20.6064 37.5976 20.6095 37.7767C20.6088 37.8687 20.59 37.9595 20.554 38.0439C20.5181 38.1283 20.4658 38.2045 20.4002 38.2679C20.3347 38.3313 20.2572 38.3807 20.1725 38.413C20.0879 38.4454 19.9977 38.4601 19.9073 38.4562Z" fill="#0062FF"/>
<path d="M17.1631 33.5645C17.166 33.6565 17.1504 33.7481 17.1173 33.8338C17.0842 33.9194 17.0343 33.9971 16.9707 34.0625C16.907 34.1279 16.831 34.1795 16.7471 34.214C16.6632 34.2485 16.5733 34.2654 16.4828 34.2635C16.3003 34.2611 16.1262 34.1858 15.998 34.0537C15.8698 33.9217 15.7978 33.7435 15.7979 33.558C15.8058 33.3794 15.879 33.2103 16.0032 33.0837C16.1274 32.9571 16.2935 32.8823 16.4692 32.8737C16.5596 32.8717 16.6495 32.8882 16.7337 32.9221C16.8178 32.9559 16.8944 33.0065 16.959 33.0708C17.0237 33.1352 17.0751 33.2119 17.1101 33.2967C17.1452 33.3814 17.1632 33.4726 17.1631 33.5645Z" fill="#0062FF"/>
<path d="M16.4983 36.382C16.5887 36.3812 16.6784 36.3994 16.7617 36.4354C16.8449 36.4713 16.9201 36.5242 16.9824 36.5909C17.0446 36.6576 17.0927 36.7366 17.1237 36.8231C17.1546 36.9095 17.1678 37.0014 17.1623 37.0932C17.1574 37.2717 17.0852 37.4414 16.9606 37.5672C16.8359 37.6931 16.6684 37.7654 16.4928 37.7691C16.3103 37.7658 16.1361 37.691 16.0066 37.5602C15.8771 37.4294 15.8023 37.2527 15.7979 37.0672C15.7993 36.9754 15.8186 36.8847 15.8547 36.8005C15.8907 36.7162 15.9427 36.6401 16.0078 36.5764C16.0729 36.5127 16.1497 36.4629 16.2339 36.4295C16.3181 36.3961 16.408 36.3799 16.4983 36.382Z" fill="#0062FF"/>
<path d="M19.9094 30.0821C20.0919 30.0791 20.268 30.1496 20.3995 30.2781C20.5311 30.4066 20.6074 30.5828 20.6117 30.7682C20.608 30.9471 20.5367 31.1177 20.4124 31.2445C20.2882 31.3713 20.1206 31.4445 19.9446 31.4489C19.7686 31.4533 19.5977 31.3887 19.4675 31.2683C19.3373 31.1478 19.2578 30.9809 19.2455 30.8023C19.2421 30.7106 19.2566 30.6191 19.2882 30.5331C19.3198 30.4471 19.3679 30.3684 19.4296 30.3014C19.4913 30.2344 19.5655 30.1806 19.6478 30.1429C19.7302 30.1053 19.8192 30.0846 19.9094 30.0821Z" fill="#0062FF"/>
<path d="M10.2784 33.5856C10.3686 33.5817 10.4587 33.5964 10.5431 33.629C10.6275 33.6615 10.7046 33.7113 10.7696 33.775C10.8345 33.8387 10.8861 33.9151 10.9211 33.9997C10.9561 34.0843 10.9739 34.1754 10.9734 34.2671C10.9725 34.447 10.9028 34.6194 10.7789 34.7477C10.655 34.8761 10.4867 34.9501 10.3098 34.9544C10.133 34.9586 9.96155 34.8927 9.83187 34.7704C9.70218 34.648 9.62452 34.4791 9.6154 34.2995C9.61072 34.2078 9.62437 34.1161 9.65554 34.03C9.6867 33.9439 9.73464 33.865 9.79662 33.7983C9.8586 33.7316 9.93329 33.6784 10.0161 33.6419C10.0989 33.6053 10.1881 33.5861 10.2784 33.5856Z" fill="#0062FF"/>
</svg>
