<svg width="39" height="42" viewBox="0 0 39 42" fill="none" xmlns="http://www.w3.org/2000/svg">
<path d="M33.3093 4.18276C27.7243 -0.156619 22.9093 -0.951431 14.2433 1.02326C11.8883 1.55938 9.22425 2.37789 7.30425 4.38023C6.05389 5.7002 5.08924 7.25804 4.46925 8.95854C4.20608 9.70714 3.99164 10.4716 3.82725 11.2472L3.77125 11.4891C3.61404 12.054 3.40414 12.6034 3.14425 13.1301C2.76688 13.7672 2.56582 14.4911 2.56125 15.2292C2.70455 15.854 3.07044 16.4073 3.59225 16.7882C3.93925 17.1022 4.16725 17.3233 4.16925 17.5247C4.13893 17.6384 4.09283 17.7474 4.03225 17.8486C3.91881 18.0473 3.83718 18.2621 3.79025 18.4854C3.69199 19.3234 3.34395 20.1138 2.79025 20.7563C0.564253 23.1259 -0.0717453 23.9415 0.00625474 24.7866C0.0655584 25.0776 0.188797 25.3522 0.367281 25.5911C0.545766 25.8299 0.77515 26.0272 1.03925 26.1689C1.27294 26.3304 1.51979 26.4724 1.77725 26.5935C2.07725 26.7475 2.59325 27.0052 2.62825 27.1859C2.67435 27.4231 2.64681 27.6684 2.54925 27.8899C2.44925 28.11 2.33625 28.2986 2.24225 28.4635C1.96625 28.9463 1.54925 29.676 2.20225 30.221C2.35525 30.3543 2.61725 30.5587 2.85625 30.7393C2.67822 31.0468 2.59873 31.4004 2.62825 31.7533C2.64667 31.8888 2.6931 32.0191 2.76466 32.1362C2.83622 32.2532 2.93139 32.3544 3.04425 32.4336C3.20507 32.5438 3.37199 32.645 3.54425 32.7367C3.95925 32.9707 4.12125 33.0803 4.17725 33.2966C4.22883 33.5584 4.20846 33.8291 4.11825 34.0805C3.88334 34.903 3.92331 35.7783 4.23225 36.5765C4.40587 37.2185 4.82323 37.7699 5.39769 38.116C5.97215 38.4622 6.65957 38.5767 7.31725 38.4357C9.33578 37.9541 11.3264 37.3648 13.2803 36.6703C14.5471 37.6575 15.4527 39.0263 15.8593 40.5684C16.002 40.9844 16.2729 41.3461 16.6339 41.6028C16.995 41.8594 17.4283 41.9983 17.8733 42H32.1673C32.529 41.9994 32.8846 41.9077 33.2004 41.7336C33.5163 41.5594 33.7819 41.3086 33.9721 41.0048C34.1623 40.701 34.2709 40.3543 34.2876 39.9975C34.3042 39.6407 34.2284 39.2857 34.0673 38.9659C33.1821 37.0217 32.6312 34.9456 32.4373 32.8226C32.1855 30.7295 32.5034 28.6079 33.3583 26.6764C33.8678 25.6316 34.4962 24.6475 35.2313 23.743C36.6313 21.872 38.2223 19.7542 38.2743 16.1464C38.3165 14.1405 38.0676 12.1389 37.5353 10.2026C36.8225 7.797 35.3398 5.684 33.3093 4.17979V4.18276ZM34.0933 22.9097C33.2937 23.8988 32.6115 24.9751 32.0603 26.1176C31.1039 28.277 30.7477 30.649 31.0283 32.9895C31.2408 35.2739 31.8397 37.507 32.8003 39.5958C32.8521 39.7023 32.8757 39.82 32.8691 39.9379C32.8624 40.0559 32.8256 40.1702 32.7621 40.2704C32.6987 40.3705 32.6105 40.4531 32.506 40.5106C32.4015 40.568 32.2839 40.5984 32.1643 40.599H17.8733C17.7237 40.5978 17.5783 40.5505 17.4573 40.4638C17.3363 40.377 17.2457 40.2552 17.1983 40.1152C16.7365 38.6296 15.9411 37.2661 14.8713 36.1263L15.4003 35.9426C15.9243 35.761 16.3213 35.6237 16.5173 35.5615C19.5493 34.6196 21.0663 33.2521 21.0243 31.5085C21.0246 31.4159 21.0059 31.3242 20.9692 31.2389C20.9325 31.1537 20.8785 31.0768 20.8107 31.0128C20.7428 30.9489 20.6625 30.8993 20.5745 30.867C20.4866 30.8348 20.3929 30.8205 20.2993 30.8252C20.2061 30.8273 20.1143 30.8474 20.0291 30.8845C19.9439 30.9216 19.8669 30.9749 19.8025 31.0414C19.7382 31.1079 19.6877 31.1862 19.6541 31.2719C19.6204 31.3577 19.6041 31.4491 19.6063 31.5411C19.6233 32.2628 19.0283 33.3183 16.0893 34.2266C15.8823 34.2908 15.4723 34.433 14.9293 34.6216C14.4213 34.7983 13.7953 35.0165 13.1043 35.2515H13.0983C11.1089 35.9644 9.08193 36.5705 7.02625 37.0672C6.70744 37.1283 6.37709 37.0644 6.10514 36.8891C5.83319 36.7139 5.641 36.441 5.56925 36.1283C5.34795 35.5814 5.32289 34.9762 5.49825 34.4132C5.64473 33.9428 5.66369 33.4427 5.55325 32.9628C5.45334 32.6459 5.28552 32.354 5.06121 32.1068C4.83691 31.8596 4.56135 31.663 4.25325 31.5302L4.10125 31.4443C4.17653 31.2905 4.26732 31.1447 4.37225 31.0089C4.43036 30.9353 4.47299 30.8511 4.49764 30.761C4.52229 30.6709 4.52847 30.5769 4.5158 30.4845C4.50313 30.392 4.47187 30.303 4.42386 30.2227C4.37586 30.1423 4.31207 30.0723 4.23625 30.0166C4.06625 29.8922 3.66225 29.5921 3.37125 29.362C3.40725 29.2958 3.44725 29.2218 3.48525 29.1586C3.59325 28.969 3.71825 28.7489 3.83925 28.4991C4.0654 28.0098 4.13214 27.4634 4.03025 26.9351C3.86525 26.0761 3.03825 25.6585 2.43025 25.3554C2.24457 25.2695 2.06544 25.1705 1.89425 25.0592C1.72801 24.9452 1.57118 24.8184 1.42525 24.68C1.43725 24.2752 2.99625 22.6145 3.83525 21.718C4.58013 20.8755 5.05272 19.8322 5.19225 18.7224C5.22242 18.6419 5.25851 18.5637 5.30025 18.4884C5.4771 18.1926 5.57675 17.8581 5.59025 17.5149C5.55514 17.1654 5.44415 16.8275 5.26485 16.5243C5.08556 16.221 4.84216 15.9594 4.55125 15.7574C4.26825 15.4987 3.99525 15.2538 3.96525 15.0376C4.05109 14.5712 4.21071 14.1211 4.43825 13.7037C4.73501 13.0955 4.97242 12.4607 5.14725 11.808L5.20925 11.5632C5.36074 10.8447 5.5578 10.1364 5.79925 9.44234C6.35442 7.92004 7.21761 6.52524 8.33626 5.34289C9.99226 3.61207 12.3053 2.89822 14.5633 2.38085C23.8093 0.279787 27.8343 1.7065 32.4373 5.28463C34.2368 6.59969 35.5499 8.46117 36.1753 10.5837C36.6703 12.3896 36.901 14.2562 36.8603 16.1267C36.8153 19.2862 35.4943 21.0446 34.0953 22.9107L34.0933 22.9097Z" fill="#0062FF"/>
<path d="M28.4134 11.7536C28.9074 12.2716 29.5762 12.5936 30.2938 12.659C31.0114 12.7244 31.7285 12.5286 32.3102 12.1086C32.892 11.6886 33.2983 11.0732 33.4527 10.3782C33.6072 9.68318 33.4991 8.95639 33.1489 8.33449C32.7987 7.71259 32.2305 7.23843 31.551 7.00117C30.8716 6.76391 30.1278 6.77989 29.4594 7.04611C28.7911 7.31233 28.2443 7.81045 27.9218 8.44681C27.5994 9.08316 27.5234 9.8139 27.7084 10.5016C26.8341 11.2497 26.1202 12.1628 25.6084 13.1872C25.1547 12.8519 24.6614 12.5724 24.1394 12.3549C23.628 11.0943 23.5518 9.70238 23.9224 8.39464C23.9704 8.39464 24.0164 8.40847 24.0644 8.40847C24.754 8.41375 25.4223 8.17265 25.946 7.72963C26.4697 7.28661 26.8136 6.67156 26.914 5.99791C27.0145 5.32426 26.8649 4.63745 26.4928 4.06416C26.1207 3.49087 25.5512 3.06975 24.8893 2.8785C24.2274 2.68724 23.5178 2.73873 22.8914 3.02348C22.2649 3.30823 21.7639 3.80702 21.4807 4.42787C21.1975 5.04872 21.1512 5.74974 21.3503 6.40165C21.5495 7.05355 21.9807 7.61237 22.5644 7.97502C22.2586 9.2007 22.2103 10.4752 22.4224 11.72C21.8224 11.5331 21.1607 11.3587 20.4374 11.1967C19.7854 11.0516 19.1654 10.9292 18.5814 10.8245C17.9862 10.311 17.5379 9.65218 17.2814 8.91399C17.9271 8.67094 18.4611 8.2039 18.7833 7.60026C19.1055 6.99663 19.1938 6.29776 19.0319 5.63443C18.8699 4.9711 18.4687 4.38876 17.9034 3.99637C17.338 3.60399 16.6472 3.42845 15.9602 3.5026C15.2732 3.57675 14.6371 3.89551 14.171 4.39924C13.7048 4.90296 13.4405 5.55713 13.4275 6.23935C13.4146 6.92156 13.6538 7.58506 14.1005 8.1057C14.5472 8.62635 15.1707 8.96846 15.8544 9.06801C15.996 9.55988 16.1974 10.033 16.4544 10.477C15.0544 10.2736 13.7294 10.1274 12.6664 10.0267C12.5502 9.35225 12.1888 8.74279 11.65 8.31266C11.1111 7.88252 10.4318 7.66126 9.73955 7.69037C9.04726 7.71948 8.3895 7.99696 7.88965 8.47078C7.38979 8.94459 7.08219 9.58218 7.02453 10.264C6.96686 10.9457 7.16309 11.6249 7.57643 12.174C7.98976 12.7231 8.5918 13.1044 9.26961 13.2465C9.94743 13.3886 10.6545 13.2816 11.2581 12.9457C11.8617 12.6098 12.3205 12.0679 12.5484 11.4218C14.0584 11.562 16.0924 11.8 18.1224 12.1633L18.2354 12.1841C17.5198 12.7461 16.8856 13.4022 16.3504 14.1341C16.0914 14.0534 15.8219 14.0105 15.5504 14.0067C14.8929 14.0043 14.2549 14.2267 13.7447 14.6362C13.2345 15.0456 12.8836 15.6168 12.7517 16.2528C12.6197 16.8887 12.7149 17.5502 13.0209 18.1247C13.327 18.6993 13.8251 19.1514 14.4306 19.4044C15.036 19.6574 15.7116 19.6957 16.3424 19.5126C16.9732 19.3295 17.5203 18.9365 17.8908 18.4002C18.2613 17.864 18.4324 17.2176 18.3749 16.5709C18.3174 15.9242 18.0349 15.3172 17.5754 14.8529C18.1648 14.0366 18.9198 13.3504 19.7924 12.8377C19.9608 12.7476 20.136 12.6703 20.3164 12.6067C21.3182 12.8271 22.3012 13.1242 23.2564 13.4953C23.2781 13.5072 23.3005 13.5181 23.3234 13.5278L23.3354 13.5338L23.3464 13.5397C23.9452 13.7551 24.497 14.0812 24.9724 14.5004C25.0598 14.5865 25.1352 14.6838 25.1964 14.7897C25.5224 15.3317 25.4514 16.1364 24.9694 17.3242C24.7064 17.9788 24.3604 18.661 23.9944 19.3838C22.7444 21.8521 21.3274 24.6404 23.6124 26.4522C26.2784 28.5582 26.3724 35.8319 26.1834 38.4524C26.1699 38.6375 26.2314 38.8203 26.3544 38.9607C26.4775 39.101 26.6519 39.1874 26.8394 39.2008H26.8894C27.0691 39.2012 27.2422 39.1343 27.3738 39.0135C27.5054 38.8927 27.5857 38.7271 27.5984 38.5501C27.6284 38.1354 28.2904 28.3518 24.4984 25.3582C23.2044 24.3343 23.9604 22.5769 25.2614 20.0117C25.5774 19.3897 25.8924 18.7519 26.1614 18.1289C26.5109 18.0452 26.8764 18.0528 27.222 18.151C27.5676 18.2491 27.8813 18.4344 28.1324 18.6887C27.7238 19.2514 27.5372 19.9419 27.6075 20.6307C27.6778 21.3196 28.0002 21.9594 28.5143 22.4303C29.0284 22.9011 29.6988 23.1706 30.3998 23.1882C31.1008 23.2058 31.7842 22.9703 32.3218 22.5258C32.8595 22.0813 33.2144 21.4585 33.3201 20.7741C33.4257 20.0896 33.2749 19.3906 32.8958 18.8082C32.5167 18.2258 31.9354 17.7999 31.2609 17.6105C30.5865 17.4211 29.8652 17.4811 29.2324 17.7793C28.5428 17.116 27.6352 16.7188 26.6744 16.6597C26.8823 15.9237 26.8494 15.1417 26.5804 14.4253C26.9873 13.4172 27.6078 12.5066 28.4004 11.7546L28.4134 11.7536ZM30.4444 8.40847C30.7248 8.40847 30.999 8.49058 31.2322 8.64442C31.4654 8.79826 31.6471 9.01692 31.7544 9.27274C31.8618 9.52857 31.8898 9.81007 31.8351 10.0817C31.7804 10.3532 31.6454 10.6027 31.447 10.7985C31.2487 10.9943 30.9961 11.1277 30.721 11.1817C30.4459 11.2357 30.1608 11.208 29.9017 11.102C29.6426 10.996 29.4212 10.8166 29.2653 10.5863C29.1095 10.3561 29.0264 10.0854 29.0264 9.80852C29.0265 9.62466 29.0633 9.44263 29.1347 9.27282C29.2061 9.10301 29.3106 8.94874 29.4424 8.81882C29.5742 8.68891 29.7306 8.58589 29.9027 8.51565C30.0747 8.44541 30.2592 8.40932 30.4454 8.40945L30.4444 8.40847ZM24.0654 4.2093C24.3458 4.2093 24.62 4.29141 24.8532 4.44525C25.0864 4.59909 25.2681 4.81775 25.3754 5.07357C25.4828 5.3294 25.5108 5.6109 25.4561 5.88249C25.4014 6.15407 25.2664 6.40354 25.0681 6.59934C24.8697 6.79514 24.6171 6.92848 24.342 6.9825C24.0669 7.03652 23.7818 7.00879 23.5227 6.90283C23.2636 6.79686 23.0422 6.61741 22.8863 6.38717C22.7305 6.15694 22.6474 5.88625 22.6474 5.60935C22.6474 5.23803 22.7968 4.88192 23.0627 4.61936C23.3286 4.3568 23.6893 4.2093 24.0654 4.2093ZM14.8514 6.30839C14.8514 6.03148 14.9345 5.7608 15.0903 5.53056C15.2462 5.30032 15.4676 5.12087 15.7267 5.01491C15.9858 4.90894 16.2709 4.88121 16.546 4.93523C16.8211 4.98926 17.0737 5.1226 17.272 5.3184C17.4704 5.5142 17.6054 5.76367 17.6601 6.03525C17.7148 6.30683 17.6868 6.58834 17.5794 6.84416C17.4721 7.09999 17.2904 7.31865 17.0572 7.47249C16.824 7.62633 16.5498 7.70844 16.2694 7.70844C15.8933 7.70844 15.5326 7.56094 15.2667 7.29838C15.0008 7.03581 14.8514 6.67971 14.8514 6.30839ZM9.88937 11.9066C9.60892 11.9066 9.33476 11.8245 9.10157 11.6707C8.86839 11.5168 8.68664 11.2982 8.57931 11.0423C8.47199 10.7865 8.4439 10.505 8.49862 10.2334C8.55333 9.96185 8.68838 9.71239 8.88669 9.51658C9.085 9.32078 9.33767 9.18744 9.61274 9.13342C9.8878 9.0794 10.1729 9.10712 10.432 9.21309C10.6911 9.31906 10.9126 9.49851 11.0684 9.72874C11.2242 9.95898 11.3074 10.2297 11.3074 10.5066C11.3076 10.8777 11.1586 11.2338 10.8931 11.4965C10.6276 11.7592 10.2673 11.9071 9.89137 11.9076L9.88937 11.9066ZM15.5594 18.2049C15.2789 18.2049 15.0048 18.1228 14.7716 17.9689C14.5384 17.8151 14.3566 17.5964 14.2493 17.3406C14.142 17.0848 14.1139 16.8033 14.1686 16.5317C14.2233 16.2601 14.3584 16.0107 14.5567 15.8149C14.755 15.6191 15.0077 15.4857 15.2827 15.4317C15.5578 15.3777 15.8429 15.4054 16.102 15.5114C16.3611 15.6173 16.5826 15.7968 16.7384 16.027C16.8942 16.2572 16.9774 16.5279 16.9774 16.8048C16.9775 16.9887 16.941 17.1708 16.8698 17.3407C16.7987 17.5106 16.6943 17.665 16.5628 17.7951C16.4312 17.9252 16.2749 18.0285 16.1029 18.0989C15.931 18.1694 15.7466 18.2058 15.5604 18.2059L15.5594 18.2049ZM31.8594 20.304C31.8594 20.5809 31.7762 20.8516 31.6204 21.0818C31.4646 21.3121 31.2431 21.4915 30.984 21.5975C30.7249 21.7034 30.4398 21.7312 30.1647 21.6771C29.8897 21.6231 29.637 21.4898 29.4387 21.294C29.2404 21.0982 29.1053 20.8487 29.0506 20.5771C28.9959 20.3055 29.024 20.024 29.1313 19.7682C29.2386 19.5124 29.4204 19.2937 29.6536 19.1399C29.8868 18.986 30.1609 18.9039 30.4414 18.9039C30.6279 18.9035 30.8127 18.9395 30.9852 19.0097C31.1576 19.08 31.3143 19.1831 31.4463 19.3133C31.5783 19.4434 31.683 19.598 31.7544 19.7682C31.8258 19.9384 31.8625 20.1208 31.8624 20.305L31.8594 20.304Z" fill="#0062FF"/>
</svg>
