<svg width="24" height="24" viewBox="0 0 24 24" fill="none" xmlns="http://www.w3.org/2000/svg">
<path opacity="0.5" d="M4.43682 11.9987C4.40616 9.52409 5.29397 7.12598 6.92865 5.26792C8.56333 3.40986 10.8288 2.22378 13.2871 1.93897C12.8595 1.88654 12.429 1.85996 11.9982 1.85938C9.30907 1.85938 6.7301 2.92762 4.82862 4.82911C2.92713 6.7306 1.85889 9.30958 1.85889 11.9987C1.85889 14.6878 2.92713 17.2668 4.82862 19.1683C6.7301 21.0698 9.30907 22.138 11.9982 22.138C12.429 22.1382 12.8594 22.1123 13.2871 22.0606C10.8284 21.7758 8.56264 20.5894 6.9279 18.7309C5.29317 16.8723 4.4056 14.4737 4.43682 11.9987Z" fill="#8C97AB"/>
<path d="M11.9989 22.9994C10.5501 23.0149 9.11275 22.741 7.77122 22.1936C6.42969 21.6463 5.21096 20.8365 4.18654 19.8119C3.16212 18.7873 2.35263 17.5684 1.80555 16.2267C1.25847 14.8851 0.984818 13.4477 1.00065 11.9989C0.985114 10.5503 1.25898 9.11312 1.80619 7.77174C2.35341 6.43035 3.16295 5.21173 4.18734 4.18734C5.21173 3.16295 6.43035 2.35341 7.77174 1.80619C9.11312 1.25898 10.5503 0.985114 11.9989 1.00065C13.4477 0.984818 14.8851 1.25847 16.2267 1.80555C17.5684 2.35263 18.7873 3.16212 19.8119 4.18654C20.8365 5.21096 21.6463 6.42969 22.1936 7.77122C22.741 9.11275 23.0149 10.5501 22.9994 11.9989C23.0152 13.4479 22.7415 14.8855 22.1943 16.2273C21.647 17.569 20.8373 18.788 19.8127 19.8127C18.788 20.8373 17.569 21.647 16.2273 22.1943C14.8855 22.7415 13.4479 23.0152 11.9989 22.9994ZM11.9989 2.72075C10.7768 2.70773 9.56441 2.93882 8.43279 3.40047C7.30118 3.86212 6.27311 4.54503 5.40886 5.40918C4.54461 6.27332 3.86157 7.30131 3.39979 8.43288C2.93801 9.56444 2.70677 10.7768 2.71964 11.9989C2.70647 13.2213 2.93752 14.434 3.39924 15.5659C3.86096 16.6977 4.54405 17.7261 5.40845 18.5904C6.27285 19.4548 7.30115 20.1379 8.43304 20.5997C9.56493 21.0614 10.7776 21.2924 12 21.2793C13.2224 21.2924 14.4351 21.0614 15.567 20.5997C16.6989 20.1379 17.7272 19.4548 18.5916 18.5904C19.456 17.7261 20.139 16.6977 20.6008 15.5659C21.0625 14.434 21.2935 13.2213 21.2804 11.9989C21.2934 10.7765 21.0622 9.56385 20.6003 8.43202C20.1385 7.30018 19.4553 6.27196 18.5908 5.40766C17.7263 4.54337 16.6979 3.8604 15.5659 3.39882C14.434 2.93723 13.2213 2.70633 11.9989 2.71964V2.72075Z" fill="#8C97AB"/>
<path d="M11.9999 12.8589C11.1503 12.8589 10.3198 12.6069 9.6133 12.1349C8.90686 11.6629 8.35624 10.992 8.0311 10.207C7.70596 9.42208 7.62089 8.55834 7.78665 7.72504C7.9524 6.89174 8.36155 6.12631 8.96233 5.52554C9.56312 4.92476 10.3285 4.51563 11.1619 4.34988C11.9952 4.18412 12.8589 4.2692 13.6439 4.59433C14.4288 4.91947 15.0998 5.47007 15.5718 6.17651C16.0438 6.88294 16.2958 7.71349 16.2958 8.56311C16.2943 9.70197 15.8412 10.7938 15.0359 11.5991C14.2306 12.4044 13.1388 12.8574 11.9999 12.8589ZM11.9999 5.9852C11.4901 5.9852 10.9917 6.13639 10.5677 6.41966C10.1438 6.70292 9.81335 7.10554 9.61823 7.57659C9.42311 8.04764 9.37206 8.56597 9.47153 9.06603C9.571 9.5661 9.81652 10.0254 10.1771 10.386C10.5376 10.7465 10.9969 10.992 11.497 11.0915C11.9971 11.191 12.5154 11.1399 12.9865 10.9448C13.4575 10.7497 13.8602 10.4192 14.1434 9.99531C14.4267 9.57138 14.5779 9.07297 14.5779 8.56311C14.577 7.87968 14.3051 7.22449 13.8218 6.74123C13.3386 6.25796 12.6834 5.98608 11.9999 5.9852Z" fill="#8C97AB"/>
<path d="M6.89682 17.733C6.79217 17.6906 6.69691 17.628 6.61648 17.5488C6.53604 17.4695 6.47202 17.3752 6.42808 17.2712C6.38413 17.1672 6.36112 17.0555 6.36037 16.9426C6.35962 16.8297 6.38114 16.7178 6.42369 16.6132C6.87397 15.5036 7.64505 14.5537 8.63827 13.8849C9.63149 13.216 10.8017 12.8588 11.9991 12.8588C13.1965 12.8588 14.3667 13.216 15.3599 13.8849C16.3531 14.5537 17.1242 15.5036 17.5745 16.6132C17.6602 16.8244 17.6586 17.0611 17.5698 17.2711C17.4811 17.4811 17.3126 17.6472 17.1014 17.733C16.8901 17.8188 16.6535 17.8171 16.4434 17.7283C16.2334 17.6396 16.0673 17.4711 15.9815 17.2599C15.66 16.467 15.1092 15.7882 14.3997 15.3103C13.6901 14.8324 12.8541 14.577 11.9985 14.577C11.143 14.577 10.307 14.8324 9.59741 15.3103C8.88785 15.7882 8.33706 16.467 8.01555 17.2599C7.97316 17.3645 7.91056 17.4598 7.83131 17.5402C7.75207 17.6207 7.65775 17.6847 7.55374 17.7286C7.44973 17.7726 7.33808 17.7956 7.22517 17.7963C7.11226 17.7971 7.00031 17.7756 6.89572 17.733H6.89682Z" fill="#8C97AB"/>
</svg>
