<svg width="24" height="24" viewBox="0 0 24 24" fill="none" xmlns="http://www.w3.org/2000/svg">
<path d="M10.8383 3.45634C8.04514 3.9349 6.23986 5.99986 6.23986 9.11986C6.23986 16.3799 3.35986 16.1106 3.35986 17.2799C3.35986 19.1999 7.67986 19.6799 11.9999 19.6799C16.3199 19.6799 20.6399 19.1999 20.6399 17.2799C20.6399 16.1106 17.7599 16.3799 17.7599 9.11986C17.7599 5.99986 15.9253 3.8989 13.0928 3.44482" stroke="#8C97AB" stroke-width="1.6" stroke-miterlimit="10"/>
<path d="M12.0001 0.959961C11.6181 0.959961 11.2519 1.11167 10.9818 1.38173C10.7118 1.65178 10.5601 2.01805 10.5601 2.39996C10.5601 2.78187 10.7118 3.14814 10.9818 3.41819C11.2519 3.68825 11.6181 3.83996 12.0001 3.83996C12.382 3.83996 12.7482 3.68825 13.0183 3.41819C13.2883 3.14814 13.4401 2.78187 13.4401 2.39996C13.4401 2.01805 13.2883 1.65178 13.0183 1.38173C12.7482 1.11167 12.382 0.959961 12.0001 0.959961Z" stroke="#8C97AB" stroke-width="1.6" stroke-miterlimit="10"/>
<path d="M14.2009 19.6814C14.3291 19.9752 14.4001 20.2992 14.4001 20.64C14.4001 21.9657 13.3259 23.04 12.0001 23.04C10.6743 23.04 9.6001 21.9657 9.6001 20.64C9.6001 20.3217 9.66202 20.0179 9.77482 19.74" stroke="#8C97AB" stroke-width="1.6" stroke-miterlimit="10"/>
</svg>
